<mxfile host="65bd71144e">
    <diagram id="nsU2--7RRgBqesVHCXs6" name="Page-1">
        <mxGraphModel dx="1456" dy="489" grid="1" gridSize="10" guides="1" tooltips="1" connect="1" arrows="1" fold="1" page="1" pageScale="1" pageWidth="850" pageHeight="1100" math="0" shadow="0">
            <root>
                <mxCell id="0"/>
                <mxCell id="1" parent="0"/>
                <mxCell id="2" value="doctor" style="swimlane;fontStyle=0;childLayout=stackLayout;horizontal=1;startSize=30;horizontalStack=0;resizeParent=1;resizeParentMax=0;resizeLast=0;collapsible=1;marginBottom=0;whiteSpace=wrap;html=1;" vertex="1" parent="1">
                    <mxGeometry x="130" y="100" width="140" height="150" as="geometry"/>
                </mxCell>
                <mxCell id="3" value="&lt;span style=&quot;color: rgb(86, 156, 214); font-family: Consolas, &amp;quot;Courier New&amp;quot;, monospace; font-size: 14px; white-space: pre; background-color: rgb(30, 30, 30);&quot;&gt;first_name&lt;/span&gt;" style="text;strokeColor=none;fillColor=none;align=left;verticalAlign=middle;spacingLeft=4;spacingRight=4;overflow=hidden;points=[[0,0.5],[1,0.5]];portConstraint=eastwest;rotatable=0;whiteSpace=wrap;html=1;" vertex="1" parent="2">
                    <mxGeometry y="30" width="140" height="30" as="geometry"/>
                </mxCell>
                <mxCell id="4" value="&lt;span style=&quot;color: rgb(61, 121, 171); font-family: Consolas, &amp;quot;Courier New&amp;quot;, monospace; font-size: 14px; white-space: pre; background-color: rgb(211, 211, 211);&quot;&gt;last_name&lt;/span&gt;" style="text;strokeColor=none;fillColor=none;align=left;verticalAlign=middle;spacingLeft=4;spacingRight=4;overflow=hidden;points=[[0,0.5],[1,0.5]];portConstraint=eastwest;rotatable=0;whiteSpace=wrap;html=1;" vertex="1" parent="2">
                    <mxGeometry y="60" width="140" height="30" as="geometry"/>
                </mxCell>
                <mxCell id="5" value="zip_code" style="text;strokeColor=none;fillColor=none;align=left;verticalAlign=middle;spacingLeft=4;spacingRight=4;overflow=hidden;points=[[0,0.5],[1,0.5]];portConstraint=eastwest;rotatable=0;whiteSpace=wrap;html=1;" vertex="1" parent="2">
                    <mxGeometry y="90" width="140" height="30" as="geometry"/>
                </mxCell>
                <mxCell id="6" value="specialty" style="text;strokeColor=none;fillColor=none;align=left;verticalAlign=middle;spacingLeft=4;spacingRight=4;overflow=hidden;points=[[0,0.5],[1,0.5]];portConstraint=eastwest;rotatable=0;whiteSpace=wrap;html=1;" vertex="1" parent="2">
                    <mxGeometry y="120" width="140" height="30" as="geometry"/>
                </mxCell>
                <mxCell id="7" value="patient" style="swimlane;fontStyle=0;childLayout=stackLayout;horizontal=1;startSize=30;horizontalStack=0;resizeParent=1;resizeParentMax=0;resizeLast=0;collapsible=1;marginBottom=0;whiteSpace=wrap;html=1;" vertex="1" parent="1">
                    <mxGeometry x="570" y="100" width="140" height="90" as="geometry"/>
                </mxCell>
                <mxCell id="8" value="&lt;span style=&quot;color: rgb(86, 156, 214); font-family: Consolas, &amp;quot;Courier New&amp;quot;, monospace; font-size: 14px; white-space: pre; background-color: rgb(30, 30, 30);&quot;&gt;first_name&lt;/span&gt;" style="text;strokeColor=none;fillColor=none;align=left;verticalAlign=middle;spacingLeft=4;spacingRight=4;overflow=hidden;points=[[0,0.5],[1,0.5]];portConstraint=eastwest;rotatable=0;whiteSpace=wrap;html=1;" vertex="1" parent="7">
                    <mxGeometry y="30" width="140" height="30" as="geometry"/>
                </mxCell>
                <mxCell id="9" value="&lt;span style=&quot;color: rgb(61, 121, 171); font-family: Consolas, &amp;quot;Courier New&amp;quot;, monospace; font-size: 14px; white-space: pre; background-color: rgb(211, 211, 211);&quot;&gt;last_name&lt;/span&gt;" style="text;strokeColor=none;fillColor=none;align=left;verticalAlign=middle;spacingLeft=4;spacingRight=4;overflow=hidden;points=[[0,0.5],[1,0.5]];portConstraint=eastwest;rotatable=0;whiteSpace=wrap;html=1;" vertex="1" parent="7">
                    <mxGeometry y="60" width="140" height="30" as="geometry"/>
                </mxCell>
                <mxCell id="10" value="rdv" style="swimlane;fontStyle=0;childLayout=stackLayout;horizontal=1;startSize=30;horizontalStack=0;resizeParent=1;resizeParentMax=0;resizeLast=0;collapsible=1;marginBottom=0;whiteSpace=wrap;html=1;" vertex="1" parent="1">
                    <mxGeometry x="330" y="330" width="140" height="120" as="geometry"/>
                </mxCell>
                <mxCell id="11" value="date" style="text;strokeColor=none;fillColor=none;align=left;verticalAlign=middle;spacingLeft=4;spacingRight=4;overflow=hidden;points=[[0,0.5],[1,0.5]];portConstraint=eastwest;rotatable=0;whiteSpace=wrap;html=1;" vertex="1" parent="10">
                    <mxGeometry y="30" width="140" height="30" as="geometry"/>
                </mxCell>
                <mxCell id="12" value="doctor_id" style="text;strokeColor=none;fillColor=none;align=left;verticalAlign=middle;spacingLeft=4;spacingRight=4;overflow=hidden;points=[[0,0.5],[1,0.5]];portConstraint=eastwest;rotatable=0;whiteSpace=wrap;html=1;" vertex="1" parent="10">
                    <mxGeometry y="60" width="140" height="30" as="geometry"/>
                </mxCell>
                <mxCell id="13" value="patient_id" style="text;strokeColor=none;fillColor=none;align=left;verticalAlign=middle;spacingLeft=4;spacingRight=4;overflow=hidden;points=[[0,0.5],[1,0.5]];portConstraint=eastwest;rotatable=0;whiteSpace=wrap;html=1;" vertex="1" parent="10">
                    <mxGeometry y="90" width="140" height="30" as="geometry"/>
                </mxCell>
                <mxCell id="14" value="" style="endArrow=none;html=1;rounded=0;entryX=0.007;entryY=0;entryDx=0;entryDy=0;entryPerimeter=0;" edge="1" parent="1" target="9">
                    <mxGeometry width="50" height="50" relative="1" as="geometry">
                        <mxPoint x="270" y="160" as="sourcePoint"/>
                        <mxPoint x="320" y="110" as="targetPoint"/>
                    </mxGeometry>
                </mxCell>
                <mxCell id="15" value="N" style="text;strokeColor=none;fillColor=none;align=left;verticalAlign=middle;spacingLeft=4;spacingRight=4;overflow=hidden;points=[[0,0.5],[1,0.5]];portConstraint=eastwest;rotatable=0;whiteSpace=wrap;html=1;" vertex="1" parent="1">
                    <mxGeometry x="540" y="120" width="30" height="30" as="geometry"/>
                </mxCell>
                <mxCell id="16" value="N" style="text;strokeColor=none;fillColor=none;align=left;verticalAlign=middle;spacingLeft=4;spacingRight=4;overflow=hidden;points=[[0,0.5],[1,0.5]];portConstraint=eastwest;rotatable=0;whiteSpace=wrap;html=1;" vertex="1" parent="1">
                    <mxGeometry x="290" y="120" width="30" height="30" as="geometry"/>
                </mxCell>
                <mxCell id="17" value="" style="endArrow=none;html=1;rounded=0;exitX=-0.014;exitY=0;exitDx=0;exitDy=0;exitPerimeter=0;entryX=0.529;entryY=1.1;entryDx=0;entryDy=0;entryPerimeter=0;" edge="1" parent="1" source="12" target="6">
                    <mxGeometry width="50" height="50" relative="1" as="geometry">
                        <mxPoint x="150" y="270" as="sourcePoint"/>
                        <mxPoint x="200" y="220" as="targetPoint"/>
                    </mxGeometry>
                </mxCell>
                <mxCell id="18" value="N" style="text;strokeColor=none;fillColor=none;align=left;verticalAlign=middle;spacingLeft=4;spacingRight=4;overflow=hidden;points=[[0,0.5],[1,0.5]];portConstraint=eastwest;rotatable=0;whiteSpace=wrap;html=1;" vertex="1" parent="1">
                    <mxGeometry x="300" y="375" width="30" height="30" as="geometry"/>
                </mxCell>
                <mxCell id="19" value="" style="endArrow=none;html=1;rounded=0;exitX=1.036;exitY=0.233;exitDx=0;exitDy=0;exitPerimeter=0;entryX=0.479;entryY=1.033;entryDx=0;entryDy=0;entryPerimeter=0;" edge="1" parent="1" source="12" target="9">
                    <mxGeometry width="50" height="50" relative="1" as="geometry">
                        <mxPoint x="600" y="270" as="sourcePoint"/>
                        <mxPoint x="650" y="220" as="targetPoint"/>
                    </mxGeometry>
                </mxCell>
                <mxCell id="20" value="1" style="text;strokeColor=none;fillColor=none;align=left;verticalAlign=middle;spacingLeft=4;spacingRight=4;overflow=hidden;points=[[0,0.5],[1,0.5]];portConstraint=eastwest;rotatable=0;whiteSpace=wrap;html=1;" vertex="1" parent="1">
                    <mxGeometry x="630" y="190" width="30" height="30" as="geometry"/>
                </mxCell>
                <mxCell id="21" value="N" style="text;strokeColor=none;fillColor=none;align=left;verticalAlign=middle;spacingLeft=4;spacingRight=4;overflow=hidden;points=[[0,0.5],[1,0.5]];portConstraint=eastwest;rotatable=0;whiteSpace=wrap;html=1;" vertex="1" parent="1">
                    <mxGeometry x="480" y="390" width="30" height="30" as="geometry"/>
                </mxCell>
                <mxCell id="22" value="1" style="text;strokeColor=none;fillColor=none;align=left;verticalAlign=middle;spacingLeft=4;spacingRight=4;overflow=hidden;points=[[0,0.5],[1,0.5]];portConstraint=eastwest;rotatable=0;whiteSpace=wrap;html=1;" vertex="1" parent="1">
                    <mxGeometry x="185" y="260" width="30" height="30" as="geometry"/>
                </mxCell>
            </root>
        </mxGraphModel>
    </diagram>
</mxfile>